<svg width="34" height="48" viewBox="0 0 34 48" fill="none" xmlns="http://www.w3.org/2000/svg">
<g clip-path="url(#clip0_94_2)">
<path d="M33.1039 16.875C33.5967 16.875 34 16.4742 34 15.9844V13.0156C34 12.5258 33.5967 12.125 33.1039 12.125H31.6103V8.5625C31.6103 6.5957 30.0047 5 28.0257 5H4.1282C2.14919 5 0.543579 6.5957 0.543579 8.5625V39.4375C0.543579 41.4043 2.14919 43 4.1282 43H28.0257C30.0047 43 31.6103 41.4043 31.6103 39.4375V35.875H33.1039C33.5967 35.875 34 35.4742 34 34.9844V32.0156C34 31.5258 33.5967 31.125 33.1039 31.125H31.6103V26.375H33.1039C33.5967 26.375 34 25.9742 34 25.4844V22.5156C34 22.0258 33.5967 21.625 33.1039 21.625H31.6103V16.875H33.1039ZM16.0769 14.5C18.7131 14.5 20.8564 16.6301 20.8564 19.25C20.8564 21.8699 18.7131 24 16.0769 24C13.4407 24 11.2974 21.8699 11.2974 19.25C11.2974 16.6301 13.4407 14.5 16.0769 14.5ZM24.441 32.075C24.441 32.8617 23.6942 33.5 22.7682 33.5H9.38564C8.45961 33.5 7.71282 32.8617 7.71282 32.075V30.65C7.71282 28.2898 9.96067 26.375 12.7313 26.375H13.1047C14.0232 26.7535 15.0239 26.9688 16.0769 26.9688C17.1299 26.9688 18.1381 26.7535 19.0492 26.375H19.4226C22.1932 26.375 24.441 28.2898 24.441 30.65V32.075Z" fill="#316099"/>
</g>
<defs>
<clipPath id="clip0_94_2">
<rect width="33.4564" height="48" fill="white" transform="translate(0.543579)"/>
</clipPath>
</defs>
</svg>
